<svg xmlns="http://www.w3.org/2000/svg" xmlns:xlink="http://www.w3.org/1999/xlink" width="40px" height="36px" viewBox="0 0 40 36" version="1.1">
    <g id="surface1">
        <path style=" stroke:none;fill-rule:evenodd;fill:rgb(98.431373%,1.568627%,17.254902%);fill-opacity:1;" d="M 16.878906 9.082031 C 15.941406 9.402344 15.078125 9.832031 14.238281 10.402344 C 13.875 10.648438 13.496094 10.898438 13.398438 10.960938 C 12.789062 11.332031 11.078125 12.925781 10.597656 13.5625 C 9.785156 14.644531 9.382812 15.457031 9.132812 16.511719 C 9.054688 16.839844 8.960938 17.207031 8.925781 17.324219 C 8.886719 17.445312 8.835938 17.628906 8.8125 17.738281 C 8.789062 17.847656 8.734375 18.007812 8.695312 18.089844 C 8.597656 18.289062 8.609375 18.304688 9.03125 18.597656 C 9.214844 18.726562 9.546875 18.972656 9.765625 19.140625 C 10.835938 19.964844 11.539062 20.402344 12.203125 20.65625 C 12.371094 20.71875 12.683594 20.847656 12.898438 20.941406 C 13.113281 21.039062 13.554688 21.199219 13.878906 21.300781 C 14.203125 21.402344 14.722656 21.566406 15.03125 21.667969 C 15.5625 21.835938 15.761719 21.871094 15.746094 21.78125 C 15.742188 21.761719 15.722656 21.601562 15.699219 21.425781 C 15.679688 21.253906 15.636719 20.988281 15.609375 20.835938 C 15.425781 19.914062 15.46875 16.789062 15.683594 15.09375 C 15.796875 14.191406 15.882812 13.609375 15.917969 13.476562 C 15.9375 13.394531 15.976562 13.21875 16.007812 13.078125 C 16.121094 12.546875 16.398438 11.695312 16.722656 10.871094 C 16.941406 10.3125 17.027344 10.132812 17.5 9.238281 C 17.75 8.761719 17.78125 8.773438 16.878906 9.082031 M 8.1875 18.851562 C 8.148438 18.890625 7.828125 19.035156 7.476562 19.179688 C 6.707031 19.488281 2.945312 21.136719 2.335938 21.429688 C 2.101562 21.542969 1.71875 21.710938 1.484375 21.804688 C 0.964844 22.003906 0.964844 22.003906 1.316406 22.214844 C 1.773438 22.488281 2.074219 22.777344 2.574219 23.441406 C 2.664062 23.5625 2.773438 23.691406 2.816406 23.726562 C 2.859375 23.765625 3 23.945312 3.132812 24.125 C 3.570312 24.722656 3.886719 25.109375 4.039062 25.234375 C 4.507812 25.617188 4.976562 25.863281 5.851562 26.195312 C 6.285156 26.355469 6.46875 26.363281 6.839844 26.234375 C 7.011719 26.175781 7.273438 26.082031 7.421875 26.03125 C 7.570312 25.980469 7.851562 25.871094 8.046875 25.78125 C 8.242188 25.695312 8.660156 25.511719 8.972656 25.375 C 9.78125 25.019531 10.535156 24.671875 10.808594 24.519531 C 10.9375 24.449219 11.179688 24.328125 11.347656 24.25 C 11.515625 24.167969 11.84375 24.007812 12.078125 23.890625 C 12.480469 23.691406 12.984375 23.46875 13.46875 23.277344 C 14.207031 22.988281 14.917969 22.648438 15.148438 22.476562 C 15.230469 22.414062 15.238281 22.417969 14.84375 22.328125 C 14.5625 22.265625 13.316406 21.855469 13.257812 21.804688 C 13.21875 21.777344 12.179688 21.335938 12.148438 21.335938 C 12.101562 21.335938 11.703125 21.136719 11.464844 20.988281 C 11.320312 20.902344 11.195312 20.832031 11.183594 20.832031 C 11.058594 20.832031 9.734375 19.988281 9.242188 19.597656 C 9.117188 19.496094 8.9375 19.355469 8.84375 19.285156 C 8.75 19.21875 8.582031 19.078125 8.464844 18.972656 C 8.257812 18.789062 8.253906 18.789062 8.1875 18.851562 "/>
        <path style=" stroke:none;fill-rule:evenodd;fill:rgb(2.352941%,1.960784%,2.352941%);fill-opacity:1;" d="M 18.523438 6.691406 C 18.4375 6.710938 18.316406 6.765625 18.257812 6.8125 C 18.054688 6.972656 17.644531 7.394531 17.605469 7.484375 C 17.546875 7.613281 17.414062 8.074219 17.414062 8.140625 C 17.414062 8.195312 17.066406 8.347656 16.804688 8.402344 C 16.738281 8.417969 16.664062 8.441406 16.644531 8.457031 C 16.625 8.472656 16.53125 8.507812 16.433594 8.539062 C 15.921875 8.691406 14.703125 9.304688 14.203125 9.660156 C 13.996094 9.804688 13.652344 10.035156 13.441406 10.171875 C 13.230469 10.304688 12.929688 10.511719 12.78125 10.625 C 11.660156 11.476562 11.734375 11.414062 11.132812 12.039062 C 10.449219 12.75 10.074219 13.214844 9.761719 13.726562 C 9.667969 13.886719 9.472656 14.203125 9.332031 14.429688 C 8.796875 15.300781 8.414062 16.210938 8.296875 16.875 C 8.199219 17.457031 8.101562 17.738281 7.996094 17.738281 C 7.867188 17.738281 7.617188 18.03125 7.566406 18.238281 C 7.472656 18.601562 7.433594 18.640625 6.765625 18.976562 C 6.429688 19.148438 6.140625 19.285156 6.125 19.285156 C 6.109375 19.285156 6.015625 19.324219 5.914062 19.371094 C 5.472656 19.578125 5.238281 19.683594 5.21875 19.683594 C 5.195312 19.683594 4.789062 19.855469 4.695312 19.90625 C 4.660156 19.925781 4.570312 19.960938 4.5 19.988281 C 4.429688 20.015625 4.167969 20.132812 3.917969 20.253906 C 3.667969 20.375 3.445312 20.472656 3.425781 20.472656 C 3.40625 20.472656 3.351562 20.496094 3.308594 20.523438 C 3.265625 20.550781 3.132812 20.613281 3.015625 20.664062 C 2.828125 20.746094 1.566406 21.296875 1.265625 21.429688 C 1.207031 21.453125 1.027344 21.535156 0.867188 21.605469 C 0.707031 21.675781 0.5625 21.734375 0.542969 21.734375 C 0.460938 21.734375 0.0703125 21.957031 0.0351562 22.019531 C -0.109375 22.296875 0.457031 23.148438 1.140625 23.679688 C 1.230469 23.746094 1.308594 23.8125 1.320312 23.820312 C 1.472656 23.988281 2.164062 24.324219 2.570312 24.429688 C 2.710938 24.46875 2.828125 24.589844 3.203125 25.085938 C 3.582031 25.582031 4.222656 26.109375 4.726562 26.339844 C 5.132812 26.523438 5.535156 26.660156 5.667969 26.664062 C 5.710938 26.664062 5.742188 26.675781 5.734375 26.691406 C 5.722656 26.703125 5.757812 26.71875 5.8125 26.722656 C 5.863281 26.722656 6 26.75 6.121094 26.78125 C 6.578125 26.90625 7.089844 26.824219 7.957031 26.484375 C 8.085938 26.433594 8.195312 26.414062 8.277344 26.429688 C 8.363281 26.441406 8.445312 26.425781 8.542969 26.375 C 8.621094 26.335938 8.714844 26.304688 8.75 26.304688 C 8.789062 26.304688 8.804688 26.285156 8.792969 26.25 C 8.773438 26.203125 9.441406 25.835938 9.554688 25.835938 C 9.582031 25.835938 9.707031 25.773438 9.835938 25.695312 C 9.960938 25.617188 10.132812 25.542969 10.214844 25.527344 C 10.378906 25.5 10.632812 25.382812 10.632812 25.335938 C 10.632812 25.304688 10.863281 25.1875 10.925781 25.1875 C 10.964844 25.1875 11.222656 25.074219 11.507812 24.929688 C 11.585938 24.890625 11.683594 24.828125 11.722656 24.789062 C 11.816406 24.703125 12.453125 24.394531 12.5625 24.382812 C 12.675781 24.371094 13.066406 24.1875 13.117188 24.121094 C 13.140625 24.09375 13.203125 24.058594 13.261719 24.050781 C 13.316406 24.039062 13.375 24.011719 13.386719 23.988281 C 13.402344 23.964844 13.417969 23.960938 13.417969 23.980469 C 13.417969 24.003906 13.4375 23.992188 13.460938 23.960938 C 13.484375 23.929688 13.660156 23.84375 13.84375 23.769531 C 14.03125 23.695312 14.351562 23.550781 14.558594 23.453125 C 14.765625 23.351562 15.03125 23.226562 15.152344 23.171875 C 15.269531 23.117188 15.4375 23.027344 15.523438 22.972656 C 15.695312 22.859375 16.066406 22.664062 16.074219 22.679688 C 16.15625 22.8125 16.269531 23.03125 16.285156 23.089844 C 16.300781 23.132812 16.429688 23.386719 16.574219 23.652344 C 17.085938 24.597656 17.246094 24.917969 17.253906 25.027344 C 17.257812 25.089844 17.328125 25.242188 17.40625 25.363281 C 17.488281 25.488281 17.554688 25.597656 17.554688 25.605469 C 17.554688 25.621094 17.65625 25.84375 17.84375 26.25 C 17.878906 26.328125 17.925781 26.433594 17.945312 26.488281 C 17.960938 26.539062 18.085938 26.742188 18.21875 26.9375 C 18.59375 27.488281 18.8125 27.820312 18.910156 27.988281 C 18.960938 28.074219 19.074219 28.242188 19.160156 28.367188 C 19.25 28.492188 19.359375 28.644531 19.40625 28.707031 C 19.460938 28.789062 19.480469 28.855469 19.46875 28.921875 C 19.445312 29.039062 19.730469 29.253906 19.90625 29.253906 C 19.964844 29.253906 20.035156 29.277344 20.066406 29.308594 C 20.09375 29.335938 20.128906 29.363281 20.140625 29.363281 C 20.148438 29.363281 20.273438 29.417969 20.417969 29.484375 C 20.59375 29.570312 20.757812 29.617188 20.925781 29.632812 C 21.066406 29.648438 21.21875 29.675781 21.265625 29.691406 C 21.390625 29.738281 21.6875 29.734375 21.746094 29.6875 C 21.773438 29.664062 21.910156 29.640625 22.050781 29.632812 C 22.269531 29.621094 22.316406 29.605469 22.421875 29.511719 C 22.527344 29.417969 22.933594 29.253906 23.054688 29.253906 C 23.109375 29.253906 23.707031 28.957031 23.722656 28.921875 C 23.730469 28.90625 23.769531 28.894531 23.808594 28.894531 C 23.851562 28.894531 23.910156 28.871094 23.941406 28.84375 C 24.050781 28.742188 24.800781 28.253906 25 28.152344 C 25.113281 28.09375 25.253906 27.996094 25.3125 27.929688 C 25.371094 27.863281 25.484375 27.777344 25.5625 27.734375 C 25.644531 27.695312 25.792969 27.605469 25.890625 27.539062 C 25.992188 27.472656 26.128906 27.398438 26.195312 27.378906 C 26.367188 27.320312 26.785156 27.113281 26.984375 26.988281 C 27.125 26.898438 27.457031 26.773438 27.457031 26.808594 C 27.457031 26.816406 27.496094 26.796875 27.542969 26.773438 C 27.640625 26.722656 27.820312 26.695312 28.144531 26.6875 C 28.3125 26.683594 28.367188 26.671875 28.367188 26.632812 C 28.367188 26.589844 28.414062 26.585938 28.625 26.601562 C 28.769531 26.617188 29.222656 26.636719 29.632812 26.648438 C 30.046875 26.660156 30.503906 26.683594 30.652344 26.707031 C 31.015625 26.757812 31.039062 26.753906 31.15625 26.640625 C 31.3125 26.488281 31.285156 26.378906 30.9375 25.78125 C 30.878906 25.683594 30.816406 25.5625 30.792969 25.511719 C 30.769531 25.460938 30.621094 25.234375 30.464844 25.007812 C 30.0625 24.433594 29.582031 23.703125 29.578125 23.660156 C 29.574219 23.640625 29.574219 23.578125 29.578125 23.527344 C 29.582031 23.472656 29.5625 23.417969 29.535156 23.402344 C 29.507812 23.382812 29.4375 23.277344 29.382812 23.164062 C 29.328125 23.050781 29.257812 22.929688 29.222656 22.890625 C 29.1875 22.855469 29.148438 22.789062 29.136719 22.746094 C 29.125 22.703125 29.097656 22.667969 29.078125 22.667969 C 29.058594 22.667969 29.046875 22.632812 29.046875 22.589844 C 29.046875 22.511719 29.042969 22.511719 28.996094 22.582031 C 28.949219 22.644531 28.941406 22.640625 28.878906 22.507812 C 28.84375 22.425781 28.789062 22.335938 28.761719 22.300781 C 28.730469 22.269531 28.675781 22.191406 28.640625 22.125 L 28.570312 22.011719 L 28.726562 22.035156 C 28.8125 22.046875 28.902344 22.082031 28.925781 22.113281 C 28.945312 22.140625 28.996094 22.164062 29.039062 22.164062 C 29.078125 22.164062 29.125 22.183594 29.136719 22.207031 C 29.15625 22.234375 29.25 22.238281 29.4375 22.226562 C 29.648438 22.210938 29.78125 22.222656 29.996094 22.273438 C 30.148438 22.3125 30.480469 22.378906 30.726562 22.417969 C 30.976562 22.453125 31.214844 22.503906 31.261719 22.523438 C 31.308594 22.542969 31.433594 22.574219 31.542969 22.597656 C 31.652344 22.617188 31.839844 22.675781 31.960938 22.726562 C 32.578125 22.972656 34.359375 22.953125 34.824219 22.691406 C 34.875 22.664062 34.980469 22.621094 35.058594 22.597656 C 35.363281 22.5 35.882812 22.214844 36.1875 21.976562 L 36.511719 21.722656 L 36.816406 21.726562 C 37.015625 21.726562 37.105469 21.71875 37.074219 21.695312 C 37.035156 21.671875 37.066406 21.664062 37.171875 21.660156 C 37.339844 21.660156 38.007812 21.441406 38.230469 21.316406 C 38.3125 21.269531 38.5625 21.042969 38.792969 20.8125 C 39.355469 20.25 39.410156 20.121094 39.398438 19.449219 C 39.386719 18.925781 39.390625 18.929688 39.125 18.925781 C 39.027344 18.921875 38.867188 18.90625 38.769531 18.890625 C 38.609375 18.859375 37.515625 18.730469 36.128906 18.582031 C 35.875 18.554688 35.613281 18.515625 35.550781 18.496094 C 35.488281 18.472656 35.378906 18.457031 35.300781 18.460938 C 35.164062 18.464844 34.035156 18.335938 32.746094 18.167969 C 32.414062 18.125 32.417969 18.125 31.484375 18.03125 C 31.109375 17.992188 30.683594 17.9375 30.539062 17.90625 C 30.394531 17.878906 30.199219 17.84375 30.105469 17.832031 C 29.890625 17.800781 29.703125 17.625 29.667969 17.425781 C 29.652344 17.351562 29.613281 17.25 29.578125 17.199219 C 29.511719 17.101562 29.332031 16.714844 29.21875 16.429688 C 29.132812 16.207031 29.015625 15.953125 28.792969 15.492188 C 28.632812 15.15625 28.503906 14.941406 28.132812 14.40625 C 28.054688 14.289062 27.976562 14.171875 27.960938 14.140625 C 27.945312 14.113281 27.882812 13.996094 27.820312 13.882812 C 27.757812 13.769531 27.636719 13.546875 27.550781 13.378906 C 27.359375 13.007812 27.101562 12.617188 26.832031 12.289062 C 26.71875 12.148438 26.523438 11.90625 26.398438 11.75 C 26.277344 11.589844 25.894531 11.171875 25.550781 10.820312 C 24.171875 9.40625 23.351562 8.910156 21.386719 8.296875 C 21.28125 8.265625 21.082031 8.238281 20.9375 8.238281 C 20.582031 8.230469 20.5 8.203125 20.496094 8.089844 C 20.492188 7.90625 20.175781 7.398438 19.851562 7.0625 C 19.554688 6.75 18.988281 6.59375 18.523438 6.691406 M 20.984375 8.792969 C 21.089844 8.820312 21.257812 8.855469 21.355469 8.867188 C 21.867188 8.941406 23.03125 9.4375 23.550781 9.804688 C 24.414062 10.410156 25.714844 11.832031 26.566406 13.097656 C 26.71875 13.324219 26.96875 13.691406 27.121094 13.90625 C 27.617188 14.621094 27.859375 15.058594 28.730469 16.8125 L 29.15625 17.667969 L 29.117188 17.855469 C 29.027344 18.273438 28.546875 18.964844 28.101562 19.320312 C 27.878906 19.496094 27.738281 19.648438 27.535156 19.933594 C 27.421875 20.089844 27.292969 20.15625 27.332031 20.042969 C 27.375 19.917969 27.339844 18.929688 27.285156 18.640625 C 27.015625 17.199219 26.917969 16.851562 26.421875 15.582031 C 26.085938 14.710938 25.738281 14.164062 24.800781 13.042969 C 24.550781 12.746094 24.222656 12.34375 24.070312 12.144531 C 23.214844 11.03125 22.257812 10.027344 21.539062 9.488281 C 21.296875 9.304688 20.589844 8.886719 20.519531 8.886719 C 20.472656 8.886719 20.4375 8.820312 20.464844 8.78125 C 20.496094 8.726562 20.753906 8.734375 20.984375 8.792969 M 17.5 9.238281 C 17.027344 10.132812 16.941406 10.3125 16.722656 10.871094 C 16.398438 11.695312 16.121094 12.546875 16.007812 13.078125 C 15.976562 13.21875 15.9375 13.394531 15.917969 13.476562 C 15.882812 13.609375 15.796875 14.191406 15.683594 15.09375 C 15.46875 16.789062 15.425781 19.914062 15.609375 20.835938 C 15.636719 20.988281 15.679688 21.253906 15.699219 21.425781 C 15.722656 21.601562 15.742188 21.761719 15.746094 21.78125 C 15.761719 21.871094 15.5625 21.835938 15.03125 21.667969 C 14.722656 21.566406 14.203125 21.402344 13.878906 21.300781 C 13.554688 21.199219 13.113281 21.039062 12.898438 20.941406 C 12.683594 20.847656 12.371094 20.71875 12.203125 20.65625 C 11.539062 20.402344 10.835938 19.964844 9.765625 19.140625 C 9.546875 18.972656 9.214844 18.726562 9.03125 18.597656 C 8.609375 18.304688 8.597656 18.289062 8.695312 18.089844 C 8.734375 18.007812 8.789062 17.847656 8.8125 17.738281 C 8.835938 17.628906 8.886719 17.445312 8.925781 17.324219 C 8.960938 17.207031 9.054688 16.839844 9.132812 16.511719 C 9.382812 15.457031 9.785156 14.644531 10.597656 13.5625 C 11.078125 12.925781 12.789062 11.332031 13.398438 10.960938 C 13.496094 10.898438 13.875 10.648438 14.238281 10.402344 C 15.078125 9.832031 15.941406 9.402344 16.878906 9.082031 C 17.78125 8.773438 17.75 8.761719 17.5 9.238281 M 19.902344 9.140625 C 21.210938 9.707031 22.246094 10.613281 23.621094 12.394531 C 23.730469 12.535156 24.042969 12.921875 24.316406 13.257812 C 25.308594 14.46875 25.503906 14.761719 25.882812 15.625 C 26.089844 16.09375 26.402344 17.117188 26.550781 17.828125 C 26.761719 18.824219 26.773438 18.894531 26.777344 19.476562 L 26.78125 20.046875 L 26.636719 20.023438 C 26.558594 20.007812 26.398438 19.964844 26.28125 19.921875 C 25.597656 19.679688 23.050781 19.839844 21.835938 20.203125 C 21.554688 20.289062 21.152344 20.402344 20.945312 20.453125 C 20.09375 20.671875 19.097656 21.058594 17.507812 21.792969 C 17.054688 22 16.992188 22.019531 16.769531 22.019531 C 16.484375 22.019531 16.511719 22.070312 16.394531 21.394531 C 16.347656 21.117188 16.285156 20.757812 16.257812 20.601562 C 16.058594 19.480469 16.085938 16.054688 16.304688 15.039062 C 16.324219 14.953125 16.363281 14.675781 16.394531 14.429688 C 16.449219 13.960938 16.617188 13.140625 16.742188 12.738281 C 16.886719 12.269531 17.140625 11.5625 17.21875 11.402344 C 17.265625 11.308594 17.382812 11.035156 17.476562 10.789062 C 17.660156 10.320312 18.238281 9.136719 18.316406 9.074219 C 18.339844 9.054688 18.542969 9.039062 18.769531 9.035156 C 18.996094 9.035156 19.226562 9.019531 19.285156 9 C 19.449219 8.945312 19.453125 8.949219 19.902344 9.140625 M 30.394531 18.277344 C 30.699219 18.355469 31.648438 18.46875 32.523438 18.53125 C 32.839844 18.554688 33.230469 18.59375 33.398438 18.625 C 34.496094 18.828125 35.261719 18.925781 36.378906 19.015625 C 36.769531 19.046875 37.203125 19.089844 37.339844 19.105469 C 37.480469 19.125 37.71875 19.140625 37.875 19.140625 C 38.128906 19.144531 38.378906 19.179688 38.535156 19.234375 C 38.5625 19.246094 38.46875 19.335938 38.28125 19.476562 C 37.859375 19.789062 37.589844 20.035156 37.324219 20.351562 C 37.195312 20.5 36.972656 20.71875 36.824219 20.832031 C 36.675781 20.945312 36.441406 21.144531 36.300781 21.273438 C 36.011719 21.535156 35.601562 21.824219 35.382812 21.925781 C 35.035156 22.082031 34.605469 22.234375 34.445312 22.253906 C 34.351562 22.265625 34.167969 22.300781 34.039062 22.328125 C 33.289062 22.484375 32.875 22.433594 30.882812 21.953125 C 30.648438 21.894531 30.03125 21.757812 29.507812 21.644531 C 28.089844 21.335938 28.089844 21.335938 27.71875 20.859375 L 27.609375 20.722656 L 28.054688 20.28125 C 28.976562 19.375 29.503906 18.742188 29.667969 18.339844 C 29.738281 18.175781 29.9375 18.160156 30.394531 18.277344 M 8.84375 19.285156 C 8.9375 19.355469 9.117188 19.496094 9.242188 19.597656 C 9.734375 19.988281 11.058594 20.832031 11.183594 20.832031 C 11.195312 20.832031 11.320312 20.902344 11.464844 20.988281 C 11.703125 21.136719 12.101562 21.335938 12.148438 21.335938 C 12.179688 21.335938 13.21875 21.777344 13.257812 21.804688 C 13.316406 21.855469 14.5625 22.265625 14.84375 22.328125 C 15.238281 22.417969 15.230469 22.414062 15.148438 22.476562 C 14.917969 22.648438 14.207031 22.988281 13.46875 23.277344 C 12.984375 23.46875 12.480469 23.691406 12.078125 23.890625 C 11.84375 24.007812 11.515625 24.167969 11.347656 24.25 C 11.179688 24.328125 10.9375 24.449219 10.808594 24.519531 C 10.535156 24.671875 9.78125 25.019531 8.972656 25.375 C 8.660156 25.511719 8.242188 25.695312 8.046875 25.78125 C 7.851562 25.871094 7.570312 25.980469 7.421875 26.03125 C 7.273438 26.082031 7.011719 26.175781 6.839844 26.234375 C 6.46875 26.363281 6.285156 26.355469 5.851562 26.195312 C 4.976562 25.863281 4.507812 25.617188 4.039062 25.234375 C 3.886719 25.109375 3.570312 24.722656 3.132812 24.125 C 3 23.945312 2.859375 23.765625 2.816406 23.726562 C 2.773438 23.691406 2.664062 23.5625 2.574219 23.441406 C 2.074219 22.777344 1.773438 22.488281 1.316406 22.214844 C 0.964844 22.003906 0.964844 22.003906 1.484375 21.804688 C 1.71875 21.710938 2.101562 21.542969 2.335938 21.429688 C 2.945312 21.136719 6.707031 19.488281 7.476562 19.179688 C 7.828125 19.035156 8.148438 18.890625 8.1875 18.851562 C 8.253906 18.789062 8.257812 18.789062 8.464844 18.972656 C 8.582031 19.078125 8.75 19.21875 8.84375 19.285156 M 38.96875 19.621094 C 38.996094 19.910156 38.417969 20.671875 38.003906 20.886719 C 37.640625 21.078125 37.289062 21.164062 37.371094 21.046875 C 37.738281 20.515625 38.953125 19.433594 38.96875 19.621094 M 25.5 20.527344 C 26.847656 20.644531 26.894531 20.65625 27.140625 21.03125 C 27.246094 21.1875 27.453125 21.496094 27.601562 21.714844 C 27.910156 22.167969 28.15625 22.542969 28.300781 22.777344 C 28.492188 23.09375 28.925781 23.726562 29.28125 24.210938 C 30.023438 25.226562 30.617188 26.128906 30.617188 26.25 C 30.617188 26.300781 30.59375 26.308594 30.5 26.289062 C 30.070312 26.214844 29.570312 26.191406 28.789062 26.203125 C 27.617188 26.226562 27.390625 26.277344 26.316406 26.769531 C 26.238281 26.804688 26.035156 26.894531 25.871094 26.96875 C 25.050781 27.324219 25.109375 27.289062 23.917969 28.078125 C 21.5625 29.640625 20.285156 29.464844 19.160156 27.417969 C 19.058594 27.230469 18.949219 27.050781 18.921875 27.015625 C 18.875 26.960938 18.683594 26.617188 18.304688 25.890625 C 18.121094 25.535156 17.605469 24.558594 17.394531 24.160156 C 17.324219 24.023438 17.234375 23.863281 17.199219 23.800781 C 16.703125 22.953125 16.667969 22.769531 16.992188 22.734375 C 17.074219 22.722656 17.25 22.671875 17.378906 22.617188 C 17.503906 22.5625 17.941406 22.398438 18.347656 22.253906 C 18.75 22.113281 19.199219 21.9375 19.34375 21.867188 C 19.789062 21.652344 20.003906 21.5625 20.402344 21.425781 C 20.613281 21.351562 20.828125 21.269531 20.882812 21.242188 C 20.9375 21.214844 21.203125 21.136719 21.472656 21.066406 C 21.742188 21 22.105469 20.898438 22.285156 20.839844 C 22.917969 20.628906 23.691406 20.511719 24.699219 20.480469 C 24.789062 20.476562 25.152344 20.5 25.5 20.527344 M 1.429688 23.128906 C 1.777344 23.5 1.839844 23.578125 1.761719 23.535156 C 1.660156 23.484375 1.214844 23.042969 1.214844 22.992188 C 1.214844 22.921875 1.269531 22.957031 1.429688 23.128906 "/>
        <path style=" stroke:none;fill-rule:evenodd;fill:rgb(2.352941%,96.470588%,29.803922%);fill-opacity:1;" d="M 20.464844 8.78125 C 20.4375 8.820312 20.472656 8.886719 20.519531 8.886719 C 20.589844 8.886719 21.296875 9.304688 21.539062 9.488281 C 22.257812 10.027344 23.214844 11.03125 24.070312 12.144531 C 24.222656 12.34375 24.550781 12.746094 24.800781 13.042969 C 25.738281 14.164062 26.085938 14.710938 26.421875 15.582031 C 26.917969 16.851562 27.015625 17.199219 27.285156 18.640625 C 27.339844 18.929688 27.375 19.917969 27.332031 20.042969 C 27.292969 20.15625 27.421875 20.089844 27.535156 19.933594 C 27.738281 19.648438 27.878906 19.496094 28.101562 19.320312 C 28.546875 18.964844 29.027344 18.273438 29.117188 17.855469 L 29.15625 17.667969 L 28.730469 16.8125 C 27.859375 15.058594 27.617188 14.621094 27.121094 13.90625 C 26.96875 13.691406 26.71875 13.324219 26.566406 13.097656 C 25.714844 11.832031 24.414062 10.410156 23.550781 9.804688 C 23.03125 9.4375 21.867188 8.941406 21.355469 8.867188 C 21.257812 8.855469 21.089844 8.820312 20.984375 8.792969 C 20.753906 8.734375 20.496094 8.726562 20.464844 8.78125 M 29.667969 18.339844 C 29.503906 18.742188 28.976562 19.375 28.054688 20.28125 L 27.609375 20.722656 L 27.71875 20.859375 C 28.089844 21.335938 28.089844 21.335938 29.507812 21.644531 C 30.03125 21.757812 30.648438 21.894531 30.882812 21.953125 C 32.875 22.433594 33.289062 22.484375 34.039062 22.328125 C 34.167969 22.300781 34.351562 22.265625 34.445312 22.253906 C 34.605469 22.234375 35.035156 22.082031 35.382812 21.925781 C 35.601562 21.824219 36.011719 21.535156 36.300781 21.273438 C 36.441406 21.144531 36.675781 20.945312 36.824219 20.832031 C 36.972656 20.71875 37.195312 20.5 37.324219 20.351562 C 37.589844 20.035156 37.859375 19.789062 38.28125 19.476562 C 38.46875 19.335938 38.5625 19.246094 38.535156 19.234375 C 38.382812 19.179688 38.132812 19.144531 37.898438 19.144531 C 37.753906 19.144531 37.425781 19.117188 37.167969 19.089844 C 36.910156 19.058594 36.285156 19.003906 35.777344 18.960938 C 35.269531 18.921875 34.820312 18.875 34.777344 18.855469 C 34.734375 18.839844 34.554688 18.808594 34.378906 18.785156 C 34.203125 18.761719 33.84375 18.703125 33.578125 18.65625 C 33.3125 18.609375 32.839844 18.554688 32.523438 18.53125 C 31.648438 18.46875 30.699219 18.355469 30.394531 18.277344 C 29.9375 18.160156 29.738281 18.175781 29.667969 18.339844 M 38.804688 19.640625 C 38.417969 19.882812 37.21875 21.121094 37.371094 21.121094 C 37.429688 21.121094 37.855469 20.964844 38.003906 20.886719 C 38.332031 20.714844 38.941406 19.988281 38.964844 19.734375 C 38.984375 19.554688 38.964844 19.542969 38.804688 19.640625 "/>
        <path style=" stroke:none;fill-rule:evenodd;fill:rgb(1.568627%,58.039216%,98.431373%);fill-opacity:1;" d="M 19.285156 9 C 19.226562 9.019531 18.996094 9.035156 18.769531 9.035156 C 18.542969 9.039062 18.339844 9.054688 18.316406 9.074219 C 18.238281 9.136719 17.660156 10.320312 17.476562 10.789062 C 17.382812 11.035156 17.265625 11.308594 17.21875 11.402344 C 17.140625 11.5625 16.886719 12.269531 16.742188 12.738281 C 16.617188 13.140625 16.449219 13.960938 16.394531 14.429688 C 16.363281 14.675781 16.324219 14.953125 16.304688 15.039062 C 16.085938 16.054688 16.058594 19.480469 16.257812 20.601562 C 16.285156 20.757812 16.347656 21.117188 16.394531 21.394531 C 16.511719 22.070312 16.484375 22.019531 16.769531 22.019531 C 16.992188 22.019531 17.054688 22 17.507812 21.792969 C 19.097656 21.058594 20.09375 20.671875 20.945312 20.453125 C 21.152344 20.402344 21.554688 20.289062 21.835938 20.203125 C 23.050781 19.839844 25.597656 19.679688 26.28125 19.921875 C 26.398438 19.964844 26.558594 20.007812 26.636719 20.023438 L 26.78125 20.046875 L 26.777344 19.476562 C 26.773438 18.894531 26.761719 18.824219 26.550781 17.828125 C 26.402344 17.117188 26.089844 16.09375 25.882812 15.625 C 25.503906 14.761719 25.308594 14.46875 24.316406 13.257812 C 24.042969 12.921875 23.730469 12.535156 23.621094 12.394531 C 22.246094 10.613281 21.210938 9.707031 19.902344 9.140625 C 19.453125 8.949219 19.449219 8.945312 19.285156 9 M 24.050781 20.511719 C 23.5 20.542969 22.753906 20.679688 22.285156 20.839844 C 22.105469 20.898438 21.742188 21 21.472656 21.066406 C 21.203125 21.136719 20.9375 21.214844 20.882812 21.242188 C 20.828125 21.269531 20.613281 21.351562 20.402344 21.425781 C 20.003906 21.5625 19.789062 21.652344 19.34375 21.867188 C 19.199219 21.9375 18.75 22.113281 18.347656 22.253906 C 17.941406 22.398438 17.503906 22.5625 17.378906 22.617188 C 17.25 22.671875 17.074219 22.722656 16.992188 22.734375 C 16.667969 22.769531 16.703125 22.953125 17.199219 23.800781 C 17.234375 23.863281 17.324219 24.023438 17.394531 24.160156 C 17.605469 24.558594 18.121094 25.535156 18.304688 25.890625 C 18.683594 26.617188 18.875 26.960938 18.921875 27.015625 C 18.949219 27.050781 19.058594 27.230469 19.160156 27.417969 C 20.285156 29.464844 21.5625 29.640625 23.917969 28.078125 C 25.109375 27.289062 25.050781 27.324219 25.871094 26.96875 C 26.035156 26.894531 26.238281 26.804688 26.316406 26.769531 C 27.390625 26.277344 27.617188 26.226562 28.789062 26.203125 C 29.570312 26.191406 30.070312 26.214844 30.5 26.289062 C 30.59375 26.308594 30.617188 26.300781 30.617188 26.25 C 30.617188 26.128906 30.023438 25.226562 29.28125 24.210938 C 28.925781 23.726562 28.492188 23.09375 28.300781 22.777344 C 28.15625 22.542969 27.910156 22.167969 27.601562 21.714844 C 27.453125 21.496094 27.246094 21.1875 27.140625 21.03125 C 26.894531 20.65625 26.847656 20.644531 25.5 20.527344 C 24.824219 20.46875 24.792969 20.46875 24.050781 20.511719 "/>
        <path style=" stroke:none;fill-rule:evenodd;fill:rgb(80.392157%,80.392157%,80.392157%);fill-opacity:1;" d="M 18.304688 6.640625 C 18.304688 6.667969 18.273438 6.691406 18.230469 6.691406 C 18.113281 6.691406 17.519531 7.320312 17.519531 7.445312 C 17.519531 7.503906 17.496094 7.558594 17.464844 7.570312 C 17.4375 7.582031 17.414062 7.621094 17.414062 7.664062 C 17.414062 7.703125 17.398438 7.734375 17.378906 7.734375 C 17.355469 7.734375 17.339844 7.839844 17.339844 7.96875 L 17.339844 8.203125 L 17.164062 8.203125 C 17.066406 8.203125 16.984375 8.21875 16.984375 8.238281 C 16.984375 8.257812 16.929688 8.277344 16.859375 8.277344 C 16.78125 8.277344 16.726562 8.296875 16.710938 8.328125 C 16.699219 8.363281 16.644531 8.382812 16.570312 8.382812 C 16.503906 8.382812 16.449219 8.398438 16.449219 8.417969 C 16.449219 8.441406 16.371094 8.457031 16.269531 8.457031 C 16.136719 8.457031 16.09375 8.46875 16.09375 8.511719 C 16.09375 8.542969 16.058594 8.5625 16.003906 8.5625 C 15.953125 8.5625 15.914062 8.578125 15.914062 8.601562 C 15.914062 8.621094 15.875 8.636719 15.824219 8.636719 C 15.769531 8.636719 15.734375 8.65625 15.734375 8.691406 C 15.734375 8.722656 15.703125 8.742188 15.648438 8.742188 C 15.597656 8.742188 15.558594 8.761719 15.558594 8.78125 C 15.558594 8.800781 15.515625 8.816406 15.46875 8.816406 C 15.414062 8.816406 15.378906 8.835938 15.378906 8.871094 C 15.378906 8.902344 15.34375 8.921875 15.289062 8.921875 C 15.242188 8.921875 15.199219 8.941406 15.199219 8.960938 C 15.199219 8.980469 15.160156 8.996094 15.113281 8.996094 C 15.054688 8.996094 15.023438 9.015625 15.023438 9.050781 C 15.023438 9.082031 14.988281 9.105469 14.933594 9.105469 C 14.882812 9.105469 14.84375 9.121094 14.84375 9.140625 C 14.84375 9.160156 14.789062 9.175781 14.71875 9.175781 C 14.632812 9.175781 14.59375 9.191406 14.59375 9.230469 C 14.59375 9.261719 14.5625 9.285156 14.519531 9.285156 C 14.476562 9.285156 14.390625 9.339844 14.324219 9.410156 C 14.257812 9.480469 14.179688 9.535156 14.148438 9.535156 C 14.117188 9.535156 14.054688 9.574219 14.007812 9.625 C 13.964844 9.675781 13.902344 9.714844 13.871094 9.714844 C 13.839844 9.714844 13.78125 9.753906 13.742188 9.804688 C 13.707031 9.855469 13.644531 9.894531 13.613281 9.894531 C 13.578125 9.894531 13.519531 9.9375 13.480469 9.984375 C 13.441406 10.035156 13.386719 10.074219 13.355469 10.074219 C 13.324219 10.074219 13.261719 10.117188 13.21875 10.164062 C 13.171875 10.214844 13.109375 10.253906 13.078125 10.253906 C 13.011719 10.253906 12.917969 10.339844 12.917969 10.394531 C 12.917969 10.417969 12.882812 10.433594 12.839844 10.433594 C 12.800781 10.433594 12.710938 10.492188 12.648438 10.5625 C 12.582031 10.628906 12.496094 10.6875 12.457031 10.6875 C 12.414062 10.6875 12.382812 10.710938 12.382812 10.742188 C 12.382812 10.769531 12.363281 10.792969 12.34375 10.792969 C 12.324219 10.792969 12.28125 10.816406 12.253906 10.847656 C 12.226562 10.875 12.203125 10.914062 12.203125 10.9375 C 12.203125 10.957031 12.171875 10.972656 12.132812 10.972656 C 12.046875 10.972656 10.0625 12.957031 10.0625 13.042969 C 10.0625 13.074219 10.046875 13.097656 10.027344 13.097656 C 10.007812 13.097656 9.992188 13.121094 9.992188 13.152344 C 9.992188 13.179688 9.972656 13.207031 9.953125 13.207031 C 9.894531 13.207031 9.8125 13.300781 9.8125 13.367188 C 9.8125 13.398438 9.773438 13.460938 9.722656 13.507812 C 9.675781 13.554688 9.632812 13.625 9.632812 13.667969 C 9.632812 13.710938 9.613281 13.746094 9.582031 13.746094 C 9.550781 13.746094 9.527344 13.777344 9.527344 13.828125 C 9.527344 13.871094 9.488281 13.9375 9.4375 13.976562 C 9.390625 14.011719 9.347656 14.074219 9.347656 14.109375 C 9.347656 14.148438 9.332031 14.175781 9.3125 14.175781 C 9.292969 14.175781 9.277344 14.210938 9.277344 14.25 C 9.277344 14.292969 9.238281 14.363281 9.1875 14.40625 C 9.140625 14.453125 9.097656 14.515625 9.097656 14.546875 C 9.097656 14.574219 9.074219 14.621094 9.042969 14.644531 C 9.011719 14.671875 8.996094 14.710938 9.007812 14.738281 C 9.015625 14.761719 9 14.792969 8.972656 14.800781 C 8.945312 14.8125 8.921875 14.847656 8.921875 14.878906 C 8.921875 14.910156 8.894531 14.964844 8.863281 14.992188 C 8.835938 15.023438 8.816406 15.070312 8.828125 15.097656 C 8.835938 15.121094 8.820312 15.152344 8.792969 15.164062 C 8.765625 15.171875 8.742188 15.214844 8.742188 15.253906 C 8.742188 15.296875 8.726562 15.328125 8.707031 15.328125 C 8.6875 15.328125 8.671875 15.367188 8.671875 15.414062 C 8.671875 15.460938 8.648438 15.511719 8.617188 15.519531 C 8.582031 15.535156 8.5625 15.589844 8.5625 15.667969 C 8.5625 15.738281 8.546875 15.796875 8.527344 15.796875 C 8.507812 15.796875 8.492188 15.835938 8.492188 15.886719 C 8.492188 15.941406 8.472656 15.976562 8.4375 15.976562 C 8.402344 15.976562 8.386719 16.015625 8.386719 16.101562 C 8.386719 16.171875 8.371094 16.226562 8.351562 16.226562 C 8.328125 16.226562 8.3125 16.324219 8.3125 16.445312 C 8.3125 16.605469 8.300781 16.667969 8.261719 16.683594 C 8.222656 16.695312 8.207031 16.753906 8.207031 16.859375 C 8.207031 16.945312 8.191406 17.023438 8.171875 17.039062 C 8.152344 17.050781 8.136719 17.128906 8.136719 17.214844 C 8.136719 17.320312 8.117188 17.378906 8.082031 17.390625 C 8.050781 17.402344 8.027344 17.445312 8.027344 17.484375 C 8.027344 17.527344 8.011719 17.558594 7.992188 17.558594 C 7.972656 17.558594 7.957031 17.582031 7.957031 17.609375 C 7.957031 17.644531 7.910156 17.667969 7.824219 17.675781 C 7.722656 17.683594 7.6875 17.703125 7.675781 17.757812 C 7.667969 17.796875 7.625 17.863281 7.578125 17.902344 C 7.515625 17.957031 7.492188 18.011719 7.492188 18.128906 C 7.492188 18.210938 7.476562 18.277344 7.457031 18.277344 C 7.4375 18.277344 7.421875 18.300781 7.421875 18.328125 C 7.421875 18.351562 7.382812 18.394531 7.332031 18.421875 C 7.285156 18.449219 7.242188 18.488281 7.242188 18.511719 C 7.242188 18.535156 7.203125 18.578125 7.15625 18.601562 C 7.105469 18.628906 7.066406 18.671875 7.066406 18.699219 C 7.066406 18.726562 7.027344 18.746094 6.976562 18.746094 C 6.925781 18.746094 6.886719 18.761719 6.886719 18.78125 C 6.886719 18.800781 6.847656 18.820312 6.796875 18.820312 C 6.742188 18.820312 6.707031 18.839844 6.707031 18.871094 C 6.707031 18.90625 6.675781 18.925781 6.617188 18.925781 C 6.570312 18.925781 6.53125 18.941406 6.53125 18.960938 C 6.53125 18.984375 6.488281 19 6.441406 19 C 6.386719 19 6.351562 19.019531 6.351562 19.050781 C 6.351562 19.082031 6.332031 19.097656 6.300781 19.085938 C 6.277344 19.074219 6.230469 19.089844 6.199219 19.121094 C 6.167969 19.152344 6.101562 19.179688 6.050781 19.179688 C 5.996094 19.179688 5.921875 19.214844 5.871094 19.269531 C 5.820312 19.328125 5.75 19.359375 5.679688 19.359375 C 5.617188 19.359375 5.566406 19.375 5.566406 19.394531 C 5.566406 19.414062 5.535156 19.429688 5.492188 19.429688 C 5.453125 19.429688 5.414062 19.453125 5.402344 19.484375 C 5.390625 19.515625 5.339844 19.539062 5.289062 19.539062 C 5.183594 19.539062 4.925781 19.644531 4.925781 19.6875 C 4.925781 19.707031 4.894531 19.71875 4.855469 19.71875 C 4.816406 19.71875 4.777344 19.734375 4.761719 19.753906 C 4.75 19.773438 4.695312 19.789062 4.636719 19.789062 C 4.574219 19.789062 4.519531 19.8125 4.507812 19.84375 C 4.496094 19.875 4.449219 19.898438 4.402344 19.898438 C 4.355469 19.898438 4.316406 19.914062 4.316406 19.933594 C 4.316406 19.953125 4.285156 19.96875 4.246094 19.96875 C 4.207031 19.96875 4.164062 19.996094 4.152344 20.023438 C 4.140625 20.054688 4.09375 20.078125 4.046875 20.078125 C 4 20.078125 3.960938 20.09375 3.960938 20.113281 C 3.960938 20.132812 3.929688 20.148438 3.886719 20.148438 C 3.847656 20.148438 3.804688 20.175781 3.796875 20.203125 C 3.785156 20.234375 3.734375 20.257812 3.6875 20.257812 C 3.640625 20.257812 3.605469 20.273438 3.605469 20.292969 C 3.605469 20.3125 3.546875 20.328125 3.480469 20.328125 C 3.390625 20.328125 3.355469 20.347656 3.355469 20.382812 C 3.355469 20.417969 3.320312 20.4375 3.265625 20.4375 C 3.214844 20.4375 3.175781 20.453125 3.175781 20.472656 C 3.175781 20.492188 3.117188 20.511719 3.050781 20.511719 C 2.96875 20.511719 2.917969 20.53125 2.902344 20.5625 C 2.890625 20.59375 2.84375 20.617188 2.796875 20.617188 C 2.75 20.617188 2.710938 20.632812 2.710938 20.652344 C 2.710938 20.671875 2.679688 20.691406 2.640625 20.691406 C 2.597656 20.691406 2.558594 20.714844 2.546875 20.742188 C 2.535156 20.773438 2.496094 20.796875 2.460938 20.796875 C 2.425781 20.796875 2.386719 20.8125 2.371094 20.832031 C 2.359375 20.855469 2.296875 20.871094 2.226562 20.871094 C 2.144531 20.871094 2.105469 20.886719 2.105469 20.921875 C 2.105469 20.957031 2.070312 20.976562 2.015625 20.976562 C 1.96875 20.976562 1.925781 20.992188 1.925781 21.011719 C 1.925781 21.035156 1.886719 21.050781 1.835938 21.050781 C 1.78125 21.050781 1.75 21.070312 1.75 21.105469 C 1.75 21.136719 1.714844 21.15625 1.660156 21.15625 C 1.609375 21.15625 1.570312 21.171875 1.570312 21.195312 C 1.570312 21.214844 1.515625 21.230469 1.445312 21.230469 C 1.359375 21.230469 1.320312 21.246094 1.320312 21.285156 C 1.320312 21.316406 1.285156 21.335938 1.230469 21.335938 C 1.183594 21.335938 1.140625 21.355469 1.140625 21.375 C 1.140625 21.394531 1.085938 21.410156 1.015625 21.410156 C 0.9375 21.410156 0.882812 21.429688 0.871094 21.460938 C 0.859375 21.488281 0.828125 21.503906 0.804688 21.496094 C 0.777344 21.484375 0.734375 21.503906 0.703125 21.535156 C 0.671875 21.5625 0.625 21.589844 0.597656 21.589844 C 0.570312 21.589844 0.53125 21.605469 0.511719 21.628906 C 0.488281 21.648438 0.425781 21.671875 0.371094 21.679688 C 0.316406 21.683594 0.265625 21.707031 0.257812 21.730469 C 0.25 21.75 0.210938 21.769531 0.171875 21.769531 C 0.0859375 21.769531 0.00390625 21.863281 0 21.964844 C 0 22.027344 0.00390625 22.027344 0.0625 21.976562 C 0.140625 21.90625 0.480469 21.734375 0.539062 21.734375 C 0.578125 21.734375 1.1875 21.472656 1.550781 21.300781 C 1.628906 21.261719 1.945312 21.125 2.246094 20.996094 C 2.828125 20.75 2.890625 20.722656 3.214844 20.566406 C 3.324219 20.515625 3.425781 20.472656 3.441406 20.472656 C 3.453125 20.472656 3.683594 20.367188 3.949219 20.238281 C 4.214844 20.113281 4.441406 20.007812 4.453125 20.007812 C 4.460938 20.007812 4.535156 19.976562 4.617188 19.9375 C 4.699219 19.902344 4.851562 19.832031 4.960938 19.789062 C 5.066406 19.742188 5.238281 19.671875 5.335938 19.625 C 5.433594 19.582031 5.691406 19.46875 5.90625 19.378906 C 7.160156 18.84375 7.460938 18.640625 7.566406 18.242188 C 7.585938 18.152344 7.636719 18.046875 7.671875 18.007812 C 7.707031 17.96875 7.753906 17.902344 7.777344 17.855469 C 7.804688 17.800781 7.863281 17.769531 7.953125 17.753906 C 8.113281 17.726562 8.140625 17.664062 8.292969 16.875 C 8.433594 16.164062 8.800781 15.292969 9.28125 14.519531 C 9.390625 14.339844 9.582031 14.023438 9.707031 13.816406 C 10.0625 13.222656 10.46875 12.71875 11.253906 11.914062 C 11.796875 11.355469 12.539062 10.765625 13.539062 10.101562 C 13.808594 9.917969 14.171875 9.675781 14.339844 9.5625 C 14.800781 9.25 15.96875 8.679688 16.433594 8.539062 C 16.53125 8.507812 16.625 8.472656 16.644531 8.457031 C 16.664062 8.441406 16.738281 8.417969 16.804688 8.402344 C 17.09375 8.339844 17.414062 8.195312 17.414062 8.128906 C 17.414062 8.054688 17.539062 7.625 17.605469 7.484375 C 17.664062 7.355469 18.226562 6.8125 18.375 6.738281 C 18.738281 6.5625 19.457031 6.699219 19.8125 7.011719 C 20.085938 7.257812 20.527344 7.953125 20.492188 8.089844 C 20.46875 8.191406 20.527344 8.214844 20.925781 8.242188 C 21.144531 8.257812 21.40625 8.300781 21.589844 8.359375 C 22 8.480469 22.800781 8.769531 22.890625 8.820312 C 22.929688 8.84375 23.074219 8.921875 23.210938 8.992188 C 23.347656 9.058594 23.5 9.144531 23.550781 9.175781 C 23.597656 9.210938 23.742188 9.296875 23.871094 9.375 C 24 9.449219 24.191406 9.585938 24.300781 9.675781 C 24.40625 9.769531 24.59375 9.917969 24.710938 10.007812 C 25.117188 10.320312 26.128906 11.378906 26.527344 11.910156 C 26.625 12.039062 26.78125 12.234375 26.871094 12.34375 C 27.089844 12.601562 27.375 13.03125 27.554688 13.378906 C 27.828125 13.90625 28.015625 14.234375 28.140625 14.414062 C 28.472656 14.894531 28.554688 15.023438 28.699219 15.296875 C 28.789062 15.460938 28.953125 15.808594 29.0625 16.066406 C 29.425781 16.910156 29.515625 17.109375 29.582031 17.199219 C 29.613281 17.25 29.652344 17.351562 29.667969 17.425781 C 29.710938 17.667969 30.152344 17.964844 30.28125 17.835938 C 30.324219 17.792969 30.25 17.738281 30.148438 17.738281 C 29.972656 17.738281 29.757812 17.492188 29.757812 17.289062 C 29.757812 17.191406 29.742188 17.128906 29.71875 17.128906 C 29.664062 17.128906 29.582031 17.015625 29.582031 16.941406 C 29.582031 16.910156 29.554688 16.875 29.527344 16.863281 C 29.496094 16.851562 29.472656 16.808594 29.472656 16.769531 C 29.472656 16.730469 29.457031 16.691406 29.4375 16.679688 C 29.417969 16.664062 29.402344 16.625 29.402344 16.585938 C 29.402344 16.546875 29.378906 16.515625 29.347656 16.515625 C 29.308594 16.515625 29.296875 16.496094 29.3125 16.445312 C 29.328125 16.394531 29.316406 16.363281 29.28125 16.351562 C 29.242188 16.335938 29.222656 16.28125 29.222656 16.191406 C 29.222656 16.117188 29.207031 16.046875 29.183594 16.039062 C 29.164062 16.035156 29.140625 15.980469 29.132812 15.921875 C 29.125 15.863281 29.105469 15.808594 29.082031 15.804688 C 29.0625 15.796875 29.046875 15.75 29.046875 15.703125 C 29.046875 15.65625 29.03125 15.617188 29.011719 15.617188 C 28.988281 15.617188 28.972656 15.582031 28.972656 15.542969 C 28.972656 15.503906 28.949219 15.460938 28.921875 15.449219 C 28.890625 15.4375 28.867188 15.390625 28.867188 15.34375 C 28.867188 15.296875 28.851562 15.257812 28.832031 15.257812 C 28.8125 15.257812 28.796875 15.222656 28.796875 15.183594 C 28.796875 15.144531 28.773438 15.101562 28.742188 15.089844 C 28.710938 15.078125 28.6875 15.035156 28.6875 14.996094 C 28.6875 14.957031 28.648438 14.886719 28.597656 14.839844 C 28.550781 14.792969 28.511719 14.730469 28.511719 14.703125 C 28.511719 14.675781 28.46875 14.617188 28.421875 14.578125 C 28.371094 14.539062 28.332031 14.480469 28.332031 14.449219 C 28.332031 14.378906 28.25 14.285156 28.191406 14.285156 C 28.171875 14.285156 28.152344 14.261719 28.152344 14.230469 C 28.152344 14.203125 28.136719 14.175781 28.117188 14.175781 C 28.097656 14.175781 28.082031 14.144531 28.082031 14.105469 C 28.082031 14.0625 28.058594 14.023438 28.027344 14.011719 C 28 14 27.976562 13.957031 27.976562 13.917969 C 27.976562 13.84375 27.898438 13.746094 27.835938 13.746094 C 27.8125 13.746094 27.796875 13.703125 27.796875 13.65625 C 27.796875 13.605469 27.78125 13.566406 27.761719 13.566406 C 27.742188 13.566406 27.726562 13.523438 27.726562 13.476562 C 27.726562 13.417969 27.703125 13.386719 27.671875 13.386719 C 27.632812 13.386719 27.617188 13.347656 27.617188 13.257812 C 27.617188 13.132812 27.554688 13.027344 27.476562 13.027344 C 27.457031 13.027344 27.441406 12.992188 27.441406 12.949219 C 27.441406 12.90625 27.398438 12.835938 27.351562 12.789062 C 27.300781 12.742188 27.261719 12.683594 27.261719 12.65625 C 27.261719 12.628906 27.230469 12.574219 27.191406 12.53125 C 27.152344 12.488281 27.117188 12.4375 27.117188 12.414062 C 27.117188 12.394531 27.015625 12.273438 26.886719 12.144531 C 26.757812 12.011719 26.65625 11.878906 26.65625 11.84375 C 26.65625 11.808594 26.613281 11.757812 26.566406 11.730469 C 26.515625 11.703125 26.476562 11.660156 26.476562 11.632812 C 26.476562 11.609375 26.460938 11.585938 26.441406 11.585938 C 26.421875 11.585938 26.40625 11.5625 26.40625 11.53125 C 26.40625 11.460938 24.859375 9.894531 24.792969 9.894531 C 24.765625 9.894531 24.691406 9.839844 24.625 9.769531 C 24.5625 9.699219 24.492188 9.644531 24.476562 9.644531 C 24.457031 9.644531 24.441406 9.621094 24.441406 9.597656 C 24.441406 9.546875 24.144531 9.355469 24.066406 9.355469 C 24.039062 9.355469 24.015625 9.339844 24.015625 9.320312 C 24.015625 9.300781 23.988281 9.285156 23.960938 9.285156 C 23.929688 9.285156 23.90625 9.257812 23.90625 9.230469 C 23.90625 9.199219 23.875 9.175781 23.828125 9.175781 C 23.78125 9.175781 23.714844 9.136719 23.679688 9.085938 C 23.632812 9.023438 23.578125 8.996094 23.5 8.996094 C 23.421875 8.996094 23.367188 8.96875 23.320312 8.90625 C 23.285156 8.855469 23.226562 8.816406 23.1875 8.816406 C 23.152344 8.816406 23.121094 8.800781 23.121094 8.78125 C 23.121094 8.761719 23.082031 8.742188 23.035156 8.742188 C 22.988281 8.742188 22.941406 8.71875 22.929688 8.691406 C 22.917969 8.65625 22.863281 8.636719 22.785156 8.636719 C 22.714844 8.636719 22.660156 8.621094 22.660156 8.601562 C 22.660156 8.578125 22.601562 8.5625 22.535156 8.5625 C 22.445312 8.5625 22.410156 8.546875 22.410156 8.511719 C 22.410156 8.472656 22.367188 8.457031 22.265625 8.457031 C 22.1875 8.457031 22.125 8.441406 22.125 8.417969 C 22.125 8.398438 22.066406 8.382812 22 8.382812 C 21.910156 8.382812 21.875 8.367188 21.875 8.328125 C 21.875 8.292969 21.835938 8.277344 21.75 8.277344 C 21.679688 8.277344 21.625 8.257812 21.625 8.238281 C 21.625 8.21875 21.457031 8.203125 21.195312 8.203125 C 20.707031 8.203125 20.554688 8.125 20.554688 7.878906 C 20.554688 7.816406 20.53125 7.761719 20.5 7.75 C 20.472656 7.738281 20.457031 7.710938 20.46875 7.683594 C 20.476562 7.660156 20.460938 7.617188 20.429688 7.59375 C 20.398438 7.566406 20.375 7.527344 20.375 7.5 C 20.375 7.441406 20.257812 7.234375 20.222656 7.234375 C 20.207031 7.234375 20.195312 7.210938 20.195312 7.183594 C 20.195312 7.160156 20.15625 7.113281 20.105469 7.089844 C 20.058594 7.0625 20.019531 7.023438 20.019531 7.003906 C 20.019531 6.957031 19.90625 6.875 19.835938 6.875 C 19.800781 6.875 19.765625 6.847656 19.753906 6.820312 C 19.742188 6.789062 19.703125 6.765625 19.660156 6.765625 C 19.621094 6.765625 19.589844 6.75 19.589844 6.730469 C 19.589844 6.707031 19.550781 6.691406 19.503906 6.691406 C 19.457031 6.691406 19.410156 6.667969 19.398438 6.640625 C 19.382812 6.59375 19.285156 6.585938 18.839844 6.585938 C 18.386719 6.585938 18.304688 6.59375 18.304688 6.640625 M 30.527344 17.902344 C 30.792969 17.960938 31.574219 18.042969 31.601562 18.015625 C 31.660156 17.957031 31.550781 17.917969 31.328125 17.917969 C 31.1875 17.917969 31.078125 17.902344 31.078125 17.882812 C 31.078125 17.859375 30.929688 17.847656 30.695312 17.851562 L 30.3125 17.851562 L 30.527344 17.902344 M 31.941406 18.0625 C 32.050781 18.078125 32.15625 18.097656 32.175781 18.113281 C 32.222656 18.140625 32.328125 18.105469 32.328125 18.058594 C 32.328125 18.042969 32.195312 18.027344 32.035156 18.03125 C 31.742188 18.035156 31.742188 18.035156 31.941406 18.0625 M 32.472656 18.128906 C 32.5625 18.183594 33.046875 18.210938 33.03125 18.160156 C 33.023438 18.132812 32.914062 18.113281 32.71875 18.109375 C 32.535156 18.101562 32.4375 18.113281 32.472656 18.128906 M 33.398438 18.246094 C 34.292969 18.375 35.324219 18.46875 35.324219 18.421875 C 35.324219 18.402344 35.230469 18.386719 35.117188 18.386719 C 34.960938 18.386719 34.898438 18.371094 34.882812 18.332031 C 34.867188 18.289062 34.792969 18.277344 34.523438 18.277344 C 34.320312 18.277344 34.183594 18.265625 34.183594 18.242188 C 34.183594 18.21875 34 18.210938 33.691406 18.210938 C 33.296875 18.214844 33.238281 18.222656 33.398438 18.246094 M 35.539062 18.492188 C 35.65625 18.558594 36.039062 18.574219 36.039062 18.515625 C 36.039062 18.46875 35.988281 18.460938 35.761719 18.460938 C 35.59375 18.460938 35.507812 18.472656 35.539062 18.492188 M 36.433594 18.605469 C 36.761719 18.652344 37.515625 18.746094 37.582031 18.746094 C 37.621094 18.746094 37.636719 18.726562 37.621094 18.691406 C 37.605469 18.652344 37.546875 18.640625 37.390625 18.640625 C 37.273438 18.640625 37.179688 18.621094 37.179688 18.601562 C 37.179688 18.582031 37.003906 18.570312 36.707031 18.570312 C 36.320312 18.574219 36.269531 18.582031 36.433594 18.605469 M 37.753906 18.757812 C 37.792969 18.792969 38.324219 18.816406 38.324219 18.78125 C 38.324219 18.761719 38.199219 18.746094 38.03125 18.746094 C 37.871094 18.746094 37.746094 18.753906 37.753906 18.757812 M 38.601562 18.859375 C 38.667969 18.878906 38.867188 18.90625 39.046875 18.917969 L 39.375 18.945312 L 39.398438 19.339844 C 39.445312 20.050781 39.363281 20.246094 38.777344 20.832031 C 38.351562 21.257812 38.140625 21.402344 37.789062 21.503906 C 37.679688 21.535156 37.574219 21.578125 37.550781 21.59375 C 37.53125 21.609375 37.414062 21.636719 37.292969 21.648438 C 36.992188 21.679688 37.054688 21.734375 37.398438 21.734375 C 37.617188 21.734375 37.6875 21.722656 37.703125 21.679688 C 37.714844 21.648438 37.761719 21.625 37.808594 21.625 C 37.855469 21.625 37.894531 21.609375 37.894531 21.589844 C 37.894531 21.570312 37.925781 21.554688 37.96875 21.554688 C 38.007812 21.554688 38.050781 21.527344 38.058594 21.5 C 38.074219 21.464844 38.128906 21.445312 38.203125 21.445312 C 38.269531 21.445312 38.324219 21.429688 38.324219 21.410156 C 38.324219 21.390625 38.355469 21.375 38.394531 21.375 C 38.433594 21.375 38.476562 21.347656 38.488281 21.320312 C 38.5 21.289062 38.527344 21.265625 38.550781 21.265625 C 38.578125 21.265625 38.617188 21.226562 38.644531 21.175781 C 38.671875 21.125 38.707031 21.085938 38.722656 21.085938 C 38.769531 21.085938 38.859375 20.992188 38.859375 20.945312 C 38.859375 20.921875 38.875 20.90625 38.894531 20.90625 C 38.945312 20.90625 39.035156 20.8125 39.035156 20.765625 C 39.035156 20.742188 39.054688 20.726562 39.074219 20.726562 C 39.125 20.726562 39.214844 20.632812 39.214844 20.585938 C 39.214844 20.5625 39.238281 20.546875 39.269531 20.546875 C 39.304688 20.546875 39.320312 20.507812 39.320312 20.421875 C 39.320312 20.351562 39.339844 20.292969 39.359375 20.292969 C 39.378906 20.292969 39.394531 20.269531 39.394531 20.238281 C 39.394531 20.210938 39.417969 20.1875 39.449219 20.1875 C 39.496094 20.1875 39.5 20.097656 39.492188 19.511719 L 39.484375 18.835938 L 38.984375 18.832031 C 38.613281 18.824219 38.515625 18.832031 38.601562 18.859375 M 36.601562 21.734375 C 36.53125 21.753906 36.332031 21.871094 36.167969 21.996094 C 35.875 22.21875 35.351562 22.503906 35.058594 22.597656 C 34.980469 22.621094 34.859375 22.671875 34.789062 22.710938 L 34.667969 22.777344 L 34.816406 22.777344 C 34.902344 22.777344 34.96875 22.761719 34.96875 22.742188 C 34.96875 22.722656 35.027344 22.703125 35.09375 22.703125 C 35.175781 22.703125 35.226562 22.683594 35.242188 22.652344 C 35.253906 22.621094 35.300781 22.597656 35.347656 22.597656 C 35.394531 22.597656 35.433594 22.582031 35.433594 22.5625 C 35.433594 22.542969 35.464844 22.523438 35.503906 22.523438 C 35.546875 22.523438 35.585938 22.5 35.597656 22.472656 C 35.609375 22.4375 35.664062 22.417969 35.730469 22.417969 C 35.808594 22.417969 35.863281 22.390625 35.910156 22.328125 C 35.949219 22.277344 36.007812 22.238281 36.042969 22.238281 C 36.082031 22.238281 36.109375 22.222656 36.109375 22.199219 C 36.109375 22.179688 36.132812 22.164062 36.164062 22.164062 C 36.195312 22.164062 36.21875 22.148438 36.21875 22.128906 C 36.21875 22.109375 36.242188 22.09375 36.269531 22.09375 C 36.296875 22.09375 36.386719 22.027344 36.464844 21.949219 C 36.566406 21.84375 36.632812 21.804688 36.714844 21.804688 C 36.789062 21.804688 36.824219 21.789062 36.824219 21.75 C 36.824219 21.691406 36.796875 21.691406 36.601562 21.734375 M 28.617188 22.058594 C 28.617188 22.082031 28.660156 22.160156 28.714844 22.230469 C 28.769531 22.304688 28.84375 22.425781 28.878906 22.5 C 28.910156 22.574219 28.953125 22.625 28.972656 22.613281 C 29.027344 22.582031 29.015625 22.539062 28.921875 22.421875 C 28.820312 22.300781 28.808594 22.21875 28.882812 22.175781 C 28.960938 22.132812 28.902344 22.070312 28.75 22.042969 C 28.660156 22.027344 28.617188 22.03125 28.617188 22.058594 M 0.00390625 22.371094 C 0 22.5 0.015625 22.597656 0.0351562 22.597656 C 0.0546875 22.597656 0.0703125 22.632812 0.0703125 22.671875 C 0.0703125 22.714844 0.113281 22.789062 0.160156 22.832031 C 0.210938 22.878906 0.25 22.9375 0.25 22.964844 C 0.25 23.023438 1.082031 23.855469 1.136719 23.855469 C 1.160156 23.855469 1.21875 23.898438 1.261719 23.945312 C 1.308594 23.996094 1.378906 24.035156 1.417969 24.035156 C 1.453125 24.035156 1.507812 24.078125 1.535156 24.125 C 1.5625 24.179688 1.613281 24.214844 1.664062 24.214844 C 1.707031 24.214844 1.75 24.234375 1.753906 24.253906 C 1.761719 24.277344 1.824219 24.300781 1.890625 24.308594 C 1.960938 24.316406 2.019531 24.339844 2.027344 24.359375 C 2.035156 24.378906 2.070312 24.394531 2.105469 24.394531 C 2.140625 24.394531 2.1875 24.417969 2.210938 24.449219 C 2.234375 24.476562 2.28125 24.5 2.3125 24.496094 C 2.347656 24.496094 2.40625 24.496094 2.449219 24.5 C 2.539062 24.503906 2.890625 24.835938 2.890625 24.917969 C 2.890625 24.949219 2.914062 24.984375 2.945312 24.996094 C 2.972656 25.007812 2.996094 25.03125 2.996094 25.050781 C 2.996094 25.097656 3.089844 25.1875 3.136719 25.1875 C 3.160156 25.1875 3.175781 25.210938 3.175781 25.242188 C 3.175781 25.269531 3.191406 25.296875 3.210938 25.296875 C 3.230469 25.296875 3.246094 25.320312 3.246094 25.351562 C 3.246094 25.425781 3.652344 25.835938 3.726562 25.835938 C 3.757812 25.835938 3.78125 25.851562 3.78125 25.871094 C 3.78125 25.890625 3.804688 25.90625 3.828125 25.90625 C 3.855469 25.90625 3.898438 25.949219 3.925781 25.996094 C 3.953125 26.046875 4.003906 26.085938 4.039062 26.085938 C 4.078125 26.085938 4.144531 26.128906 4.191406 26.175781 C 4.234375 26.226562 4.296875 26.265625 4.328125 26.265625 C 4.359375 26.265625 4.394531 26.28125 4.40625 26.300781 C 4.429688 26.34375 4.636719 26.445312 4.695312 26.445312 C 4.71875 26.445312 4.757812 26.472656 4.78125 26.5 C 4.804688 26.53125 4.871094 26.554688 4.929688 26.554688 C 4.984375 26.554688 5.03125 26.570312 5.03125 26.589844 C 5.03125 26.609375 5.082031 26.625 5.140625 26.625 C 5.199219 26.625 5.273438 26.648438 5.296875 26.675781 C 5.351562 26.726562 5.660156 26.753906 5.6875 26.707031 C 5.695312 26.691406 5.605469 26.65625 5.484375 26.628906 C 5.363281 26.601562 5.238281 26.566406 5.210938 26.550781 C 5.179688 26.535156 5.019531 26.464844 4.855469 26.390625 C 4.164062 26.085938 3.695312 25.703125 3.121094 24.980469 C 2.820312 24.605469 2.6875 24.464844 2.613281 24.445312 C 2.558594 24.433594 2.417969 24.386719 2.296875 24.339844 C 2.175781 24.289062 2.054688 24.25 2.027344 24.25 C 1.933594 24.25 1.296875 23.816406 0.933594 23.503906 C 0.523438 23.160156 0.164062 22.671875 0.0585938 22.324219 L 0.00390625 22.148438 L 0.00390625 22.371094 M 29.550781 22.28125 C 29.5625 22.355469 29.578125 22.363281 29.769531 22.351562 C 29.898438 22.34375 29.972656 22.351562 29.972656 22.378906 C 29.972656 22.402344 30.085938 22.417969 30.292969 22.417969 C 30.554688 22.417969 30.617188 22.425781 30.617188 22.472656 C 30.617188 22.511719 30.65625 22.523438 30.773438 22.523438 C 30.859375 22.523438 30.941406 22.542969 30.953125 22.5625 C 30.964844 22.582031 31.046875 22.597656 31.132812 22.597656 C 31.234375 22.597656 31.292969 22.613281 31.304688 22.652344 C 31.320312 22.6875 31.378906 22.703125 31.488281 22.703125 C 31.578125 22.703125 31.648438 22.722656 31.648438 22.742188 C 31.648438 22.761719 31.714844 22.777344 31.792969 22.777344 C 31.894531 22.777344 31.9375 22.792969 31.9375 22.832031 C 31.9375 22.867188 31.972656 22.882812 32.0625 22.882812 C 32.128906 22.882812 32.183594 22.902344 32.183594 22.921875 C 32.183594 22.945312 32.585938 22.957031 33.308594 22.957031 C 34.035156 22.957031 34.433594 22.945312 34.433594 22.921875 C 34.433594 22.902344 34.472656 22.882812 34.523438 22.882812 C 34.578125 22.882812 34.613281 22.863281 34.613281 22.832031 C 34.613281 22.761719 34.582031 22.761719 34.253906 22.839844 C 33.714844 22.964844 32.398438 22.902344 31.960938 22.726562 C 31.664062 22.605469 31.058594 22.464844 30.492188 22.382812 C 30.371094 22.363281 30.148438 22.316406 29.992188 22.277344 C 29.609375 22.175781 29.535156 22.179688 29.550781 22.28125 M 15.871094 22.773438 C 15.777344 22.824219 15.617188 22.917969 15.511719 22.980469 C 15.320312 23.09375 14.113281 23.675781 14.066406 23.675781 C 14.050781 23.675781 14 23.699219 13.953125 23.722656 C 13.902344 23.75 13.789062 23.796875 13.695312 23.832031 C 13.605469 23.867188 13.507812 23.921875 13.480469 23.953125 C 13.441406 24.007812 13.441406 24.011719 13.503906 23.984375 C 13.546875 23.96875 13.660156 23.929688 13.761719 23.894531 C 13.867188 23.863281 13.960938 23.824219 13.972656 23.808594 C 13.988281 23.796875 14.054688 23.785156 14.121094 23.785156 C 14.191406 23.785156 14.246094 23.761719 14.261719 23.730469 C 14.269531 23.699219 14.320312 23.675781 14.367188 23.675781 C 14.414062 23.675781 14.453125 23.660156 14.453125 23.640625 C 14.453125 23.621094 14.484375 23.605469 14.523438 23.605469 C 14.5625 23.605469 14.605469 23.582031 14.617188 23.550781 C 14.628906 23.519531 14.675781 23.496094 14.722656 23.496094 C 14.769531 23.496094 14.808594 23.480469 14.808594 23.460938 C 14.808594 23.441406 14.863281 23.425781 14.933594 23.425781 C 15.019531 23.425781 15.058594 23.40625 15.058594 23.371094 C 15.058594 23.335938 15.089844 23.316406 15.148438 23.316406 C 15.195312 23.316406 15.238281 23.300781 15.238281 23.28125 C 15.238281 23.261719 15.277344 23.246094 15.324219 23.246094 C 15.382812 23.246094 15.414062 23.222656 15.414062 23.191406 C 15.414062 23.160156 15.445312 23.136719 15.492188 23.136719 C 15.53125 23.136719 15.605469 23.097656 15.648438 23.046875 C 15.695312 22.996094 15.757812 22.957031 15.789062 22.957031 C 15.816406 22.957031 15.84375 22.941406 15.84375 22.921875 C 15.84375 22.902344 15.898438 22.882812 15.96875 22.882812 C 16.078125 22.882812 16.09375 22.894531 16.09375 22.976562 C 16.09375 23.023438 16.109375 23.066406 16.128906 23.066406 C 16.148438 23.066406 16.164062 23.097656 16.164062 23.136719 C 16.164062 23.179688 16.1875 23.21875 16.21875 23.230469 C 16.246094 23.242188 16.269531 23.289062 16.269531 23.339844 C 16.269531 23.386719 16.289062 23.425781 16.308594 23.425781 C 16.328125 23.425781 16.34375 23.457031 16.34375 23.496094 C 16.34375 23.539062 16.367188 23.578125 16.394531 23.589844 C 16.425781 23.601562 16.449219 23.640625 16.449219 23.679688 C 16.449219 23.714844 16.464844 23.753906 16.484375 23.765625 C 16.503906 23.777344 16.519531 23.820312 16.519531 23.859375 C 16.519531 23.898438 16.546875 23.941406 16.574219 23.953125 C 16.605469 23.960938 16.628906 24 16.628906 24.03125 C 16.628906 24.105469 16.710938 24.214844 16.765625 24.214844 C 16.789062 24.214844 16.804688 24.257812 16.804688 24.304688 C 16.804688 24.355469 16.824219 24.394531 16.84375 24.394531 C 16.863281 24.394531 16.878906 24.429688 16.878906 24.46875 C 16.878906 24.507812 16.902344 24.550781 16.929688 24.5625 C 16.960938 24.574219 16.984375 24.605469 16.984375 24.632812 C 16.984375 24.722656 17.25 25.136719 17.265625 25.0625 C 17.277344 24.992188 17.042969 24.511719 16.566406 23.640625 C 16.410156 23.351562 16.269531 23.074219 16.253906 23.027344 C 16.226562 22.941406 16.066406 22.664062 16.046875 22.671875 C 16.042969 22.675781 15.964844 22.71875 15.871094 22.773438 M 1.246094 23.019531 C 1.332031 23.171875 1.710938 23.539062 1.710938 23.46875 C 1.710938 23.421875 1.285156 22.957031 1.246094 22.957031 C 1.222656 22.957031 1.222656 22.980469 1.246094 23.019531 M 29.582031 23.574219 C 29.582031 23.703125 29.832031 24.109375 30.414062 24.933594 C 30.589844 25.179688 30.753906 25.429688 30.785156 25.492188 C 30.855469 25.644531 30.949219 25.8125 31.027344 25.933594 C 31.273438 26.308594 31.308594 26.492188 31.160156 26.632812 C 31.035156 26.75 30.980469 26.765625 30.847656 26.726562 C 30.730469 26.691406 29.21875 26.621094 29.1875 26.648438 C 29.136719 26.703125 29.328125 26.730469 29.792969 26.734375 C 30.089844 26.734375 30.316406 26.753906 30.324219 26.773438 C 30.339844 26.820312 31.257812 26.816406 31.257812 26.769531 C 31.257812 26.746094 31.28125 26.703125 31.3125 26.675781 C 31.378906 26.605469 31.375 26.195312 31.304688 26.167969 C 31.277344 26.160156 31.257812 26.113281 31.257812 26.066406 C 31.257812 26.019531 31.242188 25.980469 31.222656 25.980469 C 31.203125 25.980469 31.1875 25.945312 31.1875 25.90625 C 31.1875 25.867188 31.164062 25.824219 31.132812 25.8125 C 31.101562 25.800781 31.078125 25.769531 31.078125 25.742188 C 31.078125 25.714844 31.0625 25.691406 31.042969 25.691406 C 31.023438 25.691406 31.007812 25.667969 31.007812 25.640625 C 31.007812 25.609375 30.96875 25.546875 30.917969 25.496094 C 30.867188 25.445312 30.828125 25.367188 30.828125 25.308594 C 30.828125 25.242188 30.785156 25.167969 30.6875 25.074219 C 30.609375 25 30.542969 24.914062 30.542969 24.886719 C 30.542969 24.855469 30.503906 24.800781 30.453125 24.761719 C 30.40625 24.722656 30.367188 24.671875 30.367188 24.652344 C 30.367188 24.628906 30.351562 24.613281 30.332031 24.613281 C 30.308594 24.613281 30.292969 24.578125 30.292969 24.539062 C 30.292969 24.5 30.269531 24.46875 30.242188 24.46875 C 30.210938 24.46875 30.1875 24.445312 30.1875 24.414062 C 30.1875 24.382812 30.171875 24.359375 30.152344 24.359375 C 30.132812 24.359375 30.117188 24.332031 30.117188 24.296875 C 30.113281 24.261719 30.074219 24.195312 30.027344 24.148438 C 29.976562 24.101562 29.9375 24.042969 29.9375 24.011719 C 29.9375 23.984375 29.898438 23.921875 29.847656 23.878906 C 29.800781 23.832031 29.757812 23.765625 29.757812 23.734375 C 29.757812 23.699219 29.734375 23.664062 29.707031 23.652344 C 29.675781 23.640625 29.652344 23.601562 29.652344 23.566406 C 29.652344 23.53125 29.636719 23.492188 29.617188 23.476562 C 29.59375 23.464844 29.582031 23.503906 29.582031 23.574219 M 12.453125 24.410156 C 12.226562 24.496094 11.8125 24.71875 11.648438 24.847656 C 11.558594 24.914062 11.46875 24.972656 11.449219 24.972656 C 11.425781 24.972656 11.335938 25.007812 11.246094 25.054688 C 11.152344 25.101562 10.996094 25.167969 10.894531 25.203125 C 10.730469 25.257812 10.570312 25.367188 10.65625 25.367188 C 10.722656 25.367188 11.027344 25.242188 11.027344 25.214844 C 11.027344 25.199219 11.050781 25.1875 11.082031 25.1875 C 11.113281 25.1875 11.253906 25.132812 11.398438 25.0625 C 11.539062 24.992188 11.679688 24.9375 11.703125 24.9375 C 11.75 24.9375 12.09375 24.730469 12.132812 24.679688 C 12.140625 24.667969 12.207031 24.636719 12.273438 24.613281 C 12.394531 24.570312 12.679688 24.359375 12.613281 24.363281 C 12.59375 24.363281 12.523438 24.386719 12.453125 24.410156 M 9.097656 26.035156 C 8.804688 26.1875 8.710938 26.265625 8.832031 26.265625 C 8.882812 26.265625 9.421875 25.917969 9.421875 25.882812 C 9.421875 25.867188 9.449219 25.855469 9.097656 26.035156 M 7.957031 26.488281 C 7.003906 26.835938 6.585938 26.90625 6.136719 26.789062 C 5.734375 26.683594 5.746094 26.6875 5.746094 26.75 C 5.746094 26.789062 5.777344 26.808594 5.855469 26.808594 C 5.914062 26.808594 5.988281 26.832031 6.015625 26.859375 C 6.054688 26.898438 6.1875 26.910156 6.636719 26.910156 C 7.085938 26.910156 7.21875 26.898438 7.257812 26.859375 C 7.285156 26.832031 7.359375 26.808594 7.417969 26.808594 C 7.496094 26.808594 7.527344 26.789062 7.527344 26.75 C 7.527344 26.710938 7.550781 26.699219 7.601562 26.71875 C 7.648438 26.730469 7.679688 26.722656 7.695312 26.683594 C 7.707031 26.648438 7.757812 26.625 7.835938 26.625 C 7.902344 26.625 7.957031 26.609375 7.957031 26.589844 C 7.957031 26.570312 7.996094 26.554688 8.042969 26.554688 C 8.089844 26.554688 8.164062 26.523438 8.210938 26.484375 C 8.328125 26.386719 8.226562 26.390625 7.957031 26.488281 M 28.386719 26.625 C 28.359375 26.667969 28.441406 26.667969 28.597656 26.625 C 28.699219 26.601562 28.699219 26.597656 28.558594 26.59375 C 28.476562 26.59375 28.398438 26.605469 28.386719 26.625 M 18.519531 27.484375 C 18.519531 27.523438 18.550781 27.59375 18.589844 27.644531 C 18.628906 27.695312 18.660156 27.769531 18.660156 27.8125 C 18.660156 27.851562 18.679688 27.886719 18.699219 27.886719 C 18.71875 27.886719 18.734375 27.917969 18.734375 27.953125 C 18.734375 27.988281 18.773438 28.050781 18.824219 28.085938 C 18.871094 28.125 18.910156 28.183594 18.910156 28.21875 C 18.910156 28.253906 18.9375 28.292969 18.964844 28.304688 C 18.996094 28.316406 19.019531 28.347656 19.019531 28.375 C 19.019531 28.402344 19.035156 28.425781 19.054688 28.425781 C 19.074219 28.425781 19.089844 28.457031 19.089844 28.492188 C 19.089844 28.53125 19.128906 28.589844 19.179688 28.628906 C 19.226562 28.664062 19.269531 28.71875 19.269531 28.75 C 19.269531 28.851562 19.4375 28.980469 19.464844 28.898438 C 19.484375 28.835938 19.359375 28.597656 19.273438 28.535156 C 19.25 28.515625 19.042969 28.203125 18.894531 27.957031 C 18.566406 27.425781 18.519531 27.363281 18.519531 27.484375 M 24.886719 28.210938 C 24.476562 28.453125 23.929688 28.835938 23.972656 28.851562 C 24.023438 28.867188 24.46875 28.644531 24.589844 28.542969 C 24.800781 28.359375 25.074219 28.148438 25.136719 28.109375 C 25.175781 28.085938 25.191406 28.066406 25.171875 28.066406 C 25.152344 28.066406 25.023438 28.132812 24.886719 28.210938 M 19.980469 29.339844 C 20.070312 29.386719 20.238281 29.472656 20.355469 29.535156 C 20.519531 29.621094 20.613281 29.648438 20.75 29.644531 L 20.925781 29.640625 L 20.765625 29.613281 C 20.679688 29.597656 20.523438 29.542969 20.421875 29.492188 C 20.320312 29.441406 20.222656 29.398438 20.207031 29.398438 C 20.1875 29.398438 20.132812 29.363281 20.089844 29.324219 C 20.042969 29.285156 19.964844 29.253906 19.914062 29.253906 C 19.832031 29.257812 19.839844 29.269531 19.980469 29.339844 M 21.898438 29.640625 C 21.828125 29.648438 21.765625 29.667969 21.765625 29.683594 C 21.765625 29.703125 21.714844 29.722656 21.648438 29.734375 C 21.585938 29.742188 21.644531 29.746094 21.777344 29.742188 C 21.910156 29.738281 22.03125 29.71875 22.046875 29.699219 C 22.058594 29.675781 22.09375 29.652344 22.125 29.640625 C 22.183594 29.617188 22.117188 29.617188 21.898438 29.640625 M 21.050781 29.699219 C 21.050781 29.746094 21.09375 29.757812 21.292969 29.753906 C 21.515625 29.75 21.523438 29.746094 21.390625 29.71875 C 21.3125 29.703125 21.203125 29.679688 21.152344 29.664062 C 21.074219 29.644531 21.050781 29.652344 21.050781 29.699219 "/>
    </g>
</svg>
